<svg width="25" height="24" viewBox="0 0 25 24" fill="none" xmlns="http://www.w3.org/2000/svg">
<g id="vuesax/bold/sms">
<g id="vuesax/bold/sms_2">
<g id="sms">
<path id="Vector" d="M17.25 3.5H7.25C4.25 3.5 2.25 5 2.25 8.5V15.5C2.25 19 4.25 20.5 7.25 20.5H17.25C20.25 20.5 22.25 19 22.25 15.5V8.5C22.25 5 20.25 3.5 17.25 3.5ZM17.72 9.59L14.59 12.09C13.93 12.62 13.09 12.88 12.25 12.88C11.41 12.88 10.56 12.62 9.91 12.09L6.78 9.59C6.46 9.33 6.41 8.85 6.66 8.53C6.92 8.21 7.39 8.15 7.71 8.41L10.84 10.91C11.6 11.52 12.89 11.52 13.65 10.91L16.78 8.41C17.1 8.15 17.58 8.2 17.83 8.53C18.09 8.85 18.04 9.33 17.72 9.59Z" fill="white"/>
</g>
</g>
</g>
</svg>
