<svg width="25" height="24" viewBox="0 0 25 24" fill="none" xmlns="http://www.w3.org/2000/svg">
<g id="sms">
<path id="Vector" d="M17.25 21.25H7.25C3.6 21.25 1.5 19.15 1.5 15.5V8.5C1.5 4.85 3.6 2.75 7.25 2.75H17.25C20.9 2.75 23 4.85 23 8.5V15.5C23 19.15 20.9 21.25 17.25 21.25ZM7.25 4.25C4.39 4.25 3 5.64 3 8.5V15.5C3 18.36 4.39 19.75 7.25 19.75H17.25C20.11 19.75 21.5 18.36 21.5 15.5V8.5C21.5 5.64 20.11 4.25 17.25 4.25H7.25Z" fill="white"/>
<path id="Vector_2" d="M12.2498 12.868C11.4098 12.868 10.5598 12.608 9.90978 12.078L6.77978 9.57802C6.45978 9.31802 6.39978 8.84802 6.65978 8.52802C6.91978 8.20802 7.38978 8.14802 7.70978 8.40802L10.8398 10.908C11.5998 11.518 12.8898 11.518 13.6498 10.908L16.7798 8.40802C17.0998 8.14802 17.5798 8.19802 17.8298 8.52802C18.0898 8.84802 18.0398 9.32802 17.7098 9.57802L14.5798 12.078C13.9398 12.608 13.0898 12.868 12.2498 12.868Z" fill="white"/>
</g>
</svg>
