<svg width="16" height="16" viewBox="0 0 16 16" fill="none" xmlns="http://www.w3.org/2000/svg">
<g id="vuesax/outline/notification">
<g id="notification">
<path id="Vector" d="M8.0126 13.6853C6.45926 13.6853 4.90593 13.4386 3.4326 12.9453C2.8726 12.752 2.44593 12.3586 2.25926 11.8453C2.06593 11.332 2.1326 10.7653 2.43926 10.2586L3.20593 8.98531C3.36593 8.71865 3.5126 8.18531 3.5126 7.87198V5.94531C3.5126 3.46531 5.5326 1.44531 8.0126 1.44531C10.4926 1.44531 12.5126 3.46531 12.5126 5.94531V7.87198C12.5126 8.17865 12.6593 8.71865 12.8193 8.99198L13.5793 10.2586C13.8659 10.7386 13.9193 11.3186 13.7259 11.8453C13.5326 12.372 13.1126 12.772 12.5859 12.9453C11.1193 13.4386 9.56593 13.6853 8.0126 13.6853ZM8.0126 2.44531C6.08593 2.44531 4.5126 4.01198 4.5126 5.94531V7.87198C4.5126 8.35865 4.3126 9.07865 4.06593 9.49865L3.29926 10.772C3.15259 11.0186 3.1126 11.2786 3.19926 11.4986C3.27926 11.7253 3.47926 11.8986 3.7526 11.992C6.53926 12.9253 9.4926 12.9253 12.2793 11.992C12.5193 11.912 12.7059 11.732 12.7926 11.492C12.8793 11.252 12.8593 10.992 12.7259 10.772L11.9593 9.49865C11.7059 9.06531 11.5126 8.35198 11.5126 7.86531V5.94531C11.5126 4.01198 9.94593 2.44531 8.0126 2.44531Z" fill="black"/>
<path id="Vector_2" d="M9.25308 2.62516C9.20642 2.62516 9.15975 2.61849 9.11308 2.60516C8.91975 2.55182 8.73308 2.51182 8.55308 2.48516C7.98642 2.41182 7.43975 2.45182 6.92642 2.60516C6.73975 2.66516 6.53975 2.60516 6.41308 2.46516C6.28642 2.32516 6.24642 2.12516 6.31975 1.94516C6.59308 1.24516 7.25975 0.785156 8.01975 0.785156C8.77975 0.785156 9.44642 1.23849 9.71975 1.94516C9.78642 2.12516 9.75308 2.32516 9.62642 2.46516C9.52642 2.57182 9.38642 2.62516 9.25308 2.62516Z" fill="black"/>
<path id="Vector_3" d="M8.01367 15.207C7.35367 15.207 6.71367 14.9404 6.247 14.4737C5.78034 14.007 5.51367 13.367 5.51367 12.707H6.51367C6.51367 13.1004 6.67367 13.487 6.95367 13.767C7.23367 14.047 7.62034 14.207 8.01367 14.207C8.84034 14.207 9.51367 13.5337 9.51367 12.707H10.5137C10.5137 14.087 9.39367 15.207 8.01367 15.207Z" fill="black"/>
</g>
</g>
</svg>
